<svg width="16" height="16" xmlns="http://www.w3.org/2000/svg" fill="none">
  <g>
    <path fill="#000000"
        d="m6.09415,9.40252c-0.06856,-0.0393 -0.19595,-0.0984 -0.24509,-0.14138c-0.08625,-0.0434 -0.12605,-0.11394 -0.16951,-0.17853c-0.0667,-0.0967 -0.14257,-0.19061 -0.14947,-0.28361c-0.00837,-0.12035 -0.04596,-0.15721 0.04616,-0.16873c0.08809,-0.022 0.09146,-0.0756 0.15193,-0.13245c0.04924,-0.0798 0.11414,-0.1441 0.16707,-0.203c0.06392,-0.12747 0.09101,-0.19389 0.10207,-0.25027c0.08463,-0.21262 0.12264,-0.61221 0.23416,-0.97862c0.06729,-0.27807 0.14776,-0.55309 0.15468,-0.84272c0.00032,-0.0321 -0.00544,-0.0821 -0.01284,-0.1113c-0.01203,-0.0475 -0.01999,-0.0518 -0.07641,-0.0414c-0.25603,0.12419 -0.55486,0.25434 -0.72734,0.34431c-0.16152,0.0708 -0.30745,0.15384 -0.43466,0.20694c-0.21969,0.0881 -0.44275,0.20082 -0.64677,0.29883c-0.03477,0.0148 -0.09385,0.0541 -0.1313,0.0875c-0.05069,0.0373 -0.15367,0.18605 -0.20847,0.15807c-0.12349,-0.12473 -0.31739,-0.10622 -0.40606,-0.17607c-0.0418,-0.0332 -0.10445,-0.0724 -0.13922,-0.0869c-0.03477,-0.0145 -0.06322,-0.0304 -0.06322,-0.0352c0,-0.0249 0.16404,-0.0905 0.19877,-0.0794c0.2814,-0.0909 0.6079,-0.20366 0.84701,-0.32066c0.01858,-0.0103 0.06443,-0.0319 0.10187,-0.0492c0.03745,-0.0173 0.08121,-0.0388 0.09726,-0.048c0.01605,-0.009 0.07732,-0.0319 0.13616,-0.0505c0.05884,-0.0187 0.12637,-0.046 0.15007,-0.0607c0.02369,-0.0147 0.05664,-0.0267 0.07321,-0.0267c0.01657,0 0.04532,-0.008 0.0639,-0.0177c0.0624,-0.0327 0.27928,-0.11847 0.29958,-0.11847c0.01105,0 0.25021,-0.11311 0.28759,-0.13084c0.02163,-0.0008 0,0 0.33234,-0.1345c0.16075,-0.0589 0.32345,-0.0948 0.38548,-0.052c0.21504,0.17774 0.10937,0.47209 0.10288,0.67672c-0.06384,0.51091 -0.19722,1.06253 -0.2356,1.53565c-0.02043,0.0537 -0.05896,0.29806 -0.06927,0.43918c-0.00352,0.0482 -0.01686,0.2057 -0.02966,0.35013c-0.01281,0.14443 -0.02535,0.31512 -0.02788,0.3793c-0.00252,0.0642 -0.00579,0.14078 -0.00727,0.17021c-0.00427,0.0557 -0.0504,0.0884 -0.07593,0.10005c-0.02952,0.0261 -0.0592,0.008 -0.07622,-0.0282l0,0.00016zm8.29001,-0.52855c-0.11872,-0.11519 -0.45806,-0.45511 -0.43524,-0.59863c0.07348,-0.24122 0.04895,-0.47901 0.03093,-0.70264c-0.15878,-0.78795 -0.40841,-2.87781 -1.23124,-2.39517c-0.0081,0.002 -0.13385,0.0493 -0.17036,0.0566c-0.18147,0.33467 -0.29453,0.90252 -0.42215,1.26191c-0.04909,0.10459 -0.05188,0.2008 -0.09639,0.31069c-0.04754,0.24581 -0.15479,0.47746 -0.22249,0.70026c-0.01819,0.10828 -0.14685,0.48227 -0.23905,0.49602c-0.18219,-0.12482 -0.2859,-0.22444 -0.37606,-0.43254c-0.02413,-0.0817 -0.09819,-0.16954 -0.03964,-0.24826c0.40883,-0.54494 0.68004,-1.27499 0.8224,-1.84877c0.0044,-0.02 -0.008,-0.0266 -0.04243,-0.0223c-0.52474,0.14028 -1.59525,1.00869 -2.07248,1.19188c-0.40939,0.22952 -0.88734,-0.71679 -0.76322,-0.58513c0.81998,-0.28085 2.28128,-0.48881 2.99672,-0.98936c0.0002,-0.0135 0.04122,-0.0962 0.05065,-0.11478c0.01912,-0.0377 0.05668,-0.18255 0.08188,-0.31583c0.02167,-0.11465 0.05925,-0.23844 0.07941,-0.26163c0.0089,-0.0103 0.01607,-0.0369 0.01607,-0.0595c0,-0.0225 0.01286,-0.0581 0.02856,-0.0787c0.01571,-0.0208 0.02884,-0.0613 0.02918,-0.0901c0.00029,-0.0288 0.0081,-0.0569 0.01724,-0.0626c0.01877,-0.0116 0.04825,-0.22212 0.0444,-0.31711c-0.0031,-0.0759 -0.09859,-0.25094 -0.15235,-0.28859c-0.07176,-0.078 0.1739,-0.1016 0.25435,-0.0848c0.06307,0.0175 0.09709,0.014 0.2067,-0.0212c0.17337,-0.0558 0.21777,-0.0485 0.23739,0.0389c0.0084,0.0375 0.0074,0.0987 -0.0023,0.13616c-0.0097,0.0375 -0.04953,0.20375 -0.08862,0.36958c-0.1041,0.36514 -0.03441,0.45941 0.27801,0.66734c0.11569,0.0585 0.17018,0.0511 0.24527,0.0226c0.14949,-0.0447 0.27975,-0.10451 0.41935,-0.12816c0.24074,-0.0394 0.49251,-0.13251 0.52151,-0.15824c0.01789,-0.0159 0.07471,-0.003 0.11764,-0.009c0.25383,0.0408 0.61901,0.0502 0.39179,0.20772c-0.21676,0.14653 -0.23122,0.15449 -0.40081,0.25176c-0.04518,0.0262 -0.09791,0.0385 -0.14787,0.0594c-0.51691,0.0392 -0.52482,0.0436 -0.79443,0.0925l0.0667,0.118c0.1567,0.26213 0.2815,0.51962 0.35601,0.80353c0.07968,0.25652 0.1768,0.5584 0.20975,0.75024c0.13419,0.60808 0.15021,1.27424 0.23361,1.79604c0.05795,0.35211 0.07084,0.41949 0.0874,0.45711c0.02885,0.0655 0.03574,0.14589 0.0125,0.14579c-0.01189,-0.00006 -0.07414,-0.0546 -0.13832,-0.12102l0.00003,0.00003zm-1.55424,-4.07167c0.08868,-0.0504 0.02439,-0.0958 -0.02857,-0.12415c-0.04188,-0.0224 -0.06351,-0.008 -0.09952,0.0667c-0.01549,0.0321 -0.05675,0.13863 -0.06065,0.14664c0,0 0.14854,-0.0656 0.18875,-0.0892l-0.00001,0.00001zm-11.22063,1.98015c-0.0804,-0.0115 -0.0912,-0.0112 -0.11594,-0.0158c-0.05058,-0.0146 -0.07195,-0.0442 -0.11228,-0.12994c-0.06551,-0.0925 -0.11634,-0.11808 -0.1477,-0.15643c-0.0183,-0.00008 -0.05825,-0.0448 -0.0837,-0.0822c-0.02546,-0.0374 -0.0539,-0.0679 -0.06322,-0.0679c-0.00932,0 -0.02691,-0.031 -0.02691,-0.0537c0,-0.0304 -0.04418,-0.12747 -0.02631,-0.11331c1.44603,-0.54702 2.72884,-3.5886 3.40194,-4.82129c0.24442,-0.45692 -0.2185,-0.54907 -0.42294,-0.79696c-0.06186,-0.074 -0.04815,-0.17304 0.03453,-0.24955c0.28193,-0.0209 0.74638,0.34435 0.91667,0.50471c0.04116,0.0438 0.04393,0.063 0.0425,0.29384c-0.77054,1.39184 -1.46078,3.01187 -2.38029,4.29734c-0.07941,0.11955 -0.15373,0.25886 -0.24155,0.35614c-0.04194,0.0435 -0.12949,0.17497 -0.16144,0.24245c-0.09837,0.16174 -0.19486,0.32659 -0.28779,0.46904c-0.053,0.13096 -0.17616,0.25903 -0.23688,0.29289c-0.027,0.0277 -0.06988,0.035 -0.08869,0.0307l0,-0.00003zm6.62542,-0.36283c-0.13182,-0.0385 -0.23793,-0.13432 -0.34847,-0.20424c-0.13512,-0.11351 -0.64298,-0.48196 -0.64974,-0.58248c-0.00058,-0.0186 0.01747,-0.0141 0.0624,0.0155c0.03477,0.023 0.11128,0.0644 0.17002,0.0921c0.05874,0.0277 0.13953,0.071 0.17954,0.0962c0.06361,0.0226 0.13165,0.0642 0.18236,0.0848c0.01707,0 0.05427,0.0121 0.08266,0.027c0.11497,0.06 0.31433,0.13033 0.50382,0.13093c0.1721,0.00053 0.1669,-0.0403 0.20814,-0.0791c0.05343,-0.0502 0.03803,-0.22242 0.03132,-0.26474c-0.01239,-0.0214 -0.02907,-0.0815 -0.04854,-0.13499c-0.01947,-0.0535 -0.05548,-0.13665 -0.08001,-0.18479c-0.02453,-0.0482 -0.05531,-0.13567 -0.06839,-0.19452c-0.10844,-0.21014 -0.19055,-0.41672 -0.28509,-0.61047c-0.12248,-0.2049 -0.25737,-0.72612 -0.34464,-0.91762c-0.10224,-0.31981 -0.23282,-0.655 -0.36386,-0.92741c-0.00912,-0.0185 -0.01659,-0.0435 -0.01659,-0.0554c0,-0.0234 -0.04513,-0.13223 -0.08927,-0.21531c-0.01509,-0.0284 -0.02744,-0.0643 -0.02744,-0.08c0,-0.0156 -0.03501,-0.092 -0.0778,-0.16988c-0.0428,-0.0778 -0.07781,-0.15032 -0.07781,-0.16103c0,-0.0166 -0.04947,-0.11758 -0.24977,-0.51006c-0.01638,-0.0321 -0.0588,-0.10389 -0.09425,-0.15954c-0.03546,-0.0557 -0.06446,-0.10608 -0.06446,-0.11206c0,-0.0231 -0.27231,-0.37471 -0.35455,-0.45784c-0.18089,-0.18281 -0.36172,-0.34323 -0.47323,-0.41979c-0.10803,-0.0742 -0.3188,-0.18887 -0.4074,-0.2217c-0.0214,-0.008 -0.10953,-0.0419 -0.19585,-0.0754c-0.08632,-0.0335 -0.16629,-0.061 -0.17771,-0.061c-0.01142,0 -0.04429,-0.0122 -0.07306,-0.0272c-0.10074,-0.0523 -0.01014,-0.0529 0.15973,-0.001c0.34421,0.10491 0.3958,0.12472 0.51506,0.19778c0.0399,0.0245 0.08206,0.0445 0.09369,0.0445c0.01162,0 0.04982,0.0219 0.08489,0.0487c0.03507,0.0268 0.07019,0.0486 0.07806,0.0486c0.00786,0 0.09857,0.0635 0.20156,0.14102c0.16772,0.12631 0.25824,0.21186 0.57,0.53866c0.09471,0.0993 0.32846,0.42013 0.40222,0.55209c0.02427,0.0434 0.05641,0.0925 0.07144,0.10925c0.03366,0.0374 0.18595,0.32805 0.18595,0.35493c0,0.0107 0.01693,0.0432 0.03761,0.0724c0.02069,0.029 0.04398,0.0785 0.05175,0.10999c0.00777,0.0315 0.03982,0.11407 0.07122,0.18361c0.03139,0.0696 0.07228,0.16145 0.09086,0.20424c0.01858,0.0428 0.04839,0.11093 0.06624,0.15141c0.07686,0.27279 0.17999,0.49682 0.25648,0.76777c0.01562,0.0562 0.04163,0.13387 0.0578,0.17257c0.01617,0.0387 0.0294,0.0858 0.0294,0.10468c0,0.0188 0.01307,0.0594 0.02906,0.09c0.02966,0.0745 0.04599,0.15734 0.07792,0.22107c0.05243,0.0915 0.0596,0.20849 0.10276,0.29537c0.07915,0.25511 0.20126,0.51824 0.28673,0.74106c0.09417,0.25252 0.22747,0.5229 0.25937,0.76201c0.00984,0.0466 0.0138,0.19846 0.0138,0.19846c0.0121,0.38367 -0.33893,0.44682 -0.64594,0.2711l0.00001,-0.00023zm-2.64332,-1.55954c0.09478,-0.13423 -0.09653,-0.40766 -0.17391,-0.52368c-0.02233,-0.0321 -0.08704,-0.152 -0.14381,-0.26646c-0.05677,-0.11446 -0.11559,-0.21839 -0.13072,-0.23094c-0.02524,-0.0389 -0.17017,-0.1744 -0.07631,-0.17382c0.47481,-0.0811 0.899,0.37054 1.06074,0.79752c0.22886,0.55604 -0.08551,0.58789 -0.18293,0.60682c-0.96414,0.16726 -0.40731,-0.0764 -0.35306,-0.20944zm6.43912,-2.10898c0.0066,-0.0107 0.02432,-0.0195 0.03937,-0.0195c0.01504,0 0.03786,-0.0197 0.05071,-0.0436c0.02164,-0.0405 0.14448,-0.17031 0.16109,-0.17031c0.01198,0 0.12814,-0.11195 0.12814,-0.1235c0,-0.006 0.02188,-0.0343 0.04864,-0.0631c0.04408,-0.0476 0.06486,-0.10514 0.03794,-0.10514c-0.0059,0 -0.03537,0.0128 -0.06551,0.0283c-0.03016,0.0156 -0.12382,0.0519 -0.20814,0.0806c-0.08432,0.0287 -0.16329,0.06 -0.17548,0.0695c-0.0122,0.009 -0.08383,0.0301 -0.15918,0.0459c-0.07536,0.0157 -0.16006,0.0374 -0.18821,0.0481c-0.02815,0.0107 -0.07086,0.0195 -0.0949,0.0195c-0.02403,0 -0.08256,0.019 -0.13003,0.0424c-0.04748,0.0233 -0.13754,0.0463 -0.20013,0.0511c-0.18892,0.0217 -0.18679,-0.13163 -0.35281,-0.19064c-0.09925,-0.0327 -0.20571,-0.20639 -0.1483,-0.24187c0.00947,-0.006 0.08103,0.0156 0.15896,0.0478c0.07793,0.0321 0.16863,0.0591 0.20156,0.0598c0.08279,0.002 0.39395,-0.0473 0.4117,-0.0652c0.05601,-0.0219 0.11974,-0.0257 0.17337,-0.0456c0.0428,-0.0162 0.13033,-0.0424 0.19452,-0.0585c0.06419,-0.0161 0.13074,-0.0367 0.14789,-0.046c0.01715,-0.009 0.07186,-0.023 0.12157,-0.0304c0.04972,-0.007 0.09039,-0.0194 0.09039,-0.0265c0,-0.007 0.04158,-0.0245 0.09239,-0.0386c0.05082,-0.0141 0.11998,-0.0379 0.15369,-0.0529c0.07713,-0.0343 0.10049,-0.0341 0.27714,0.003c0.21551,0.045 0.24933,0.0699 0.18002,0.13258c-0.01975,0.0179 -0.04591,0.0659 -0.05811,0.10659c-0.0145,0.0484 -0.04082,0.0835 -0.07593,0.10118c-0.02955,0.0149 -0.06863,0.0405 -0.08684,0.0569c-0.06743,0.0606 -0.09211,0.0784 -0.10894,0.0784c-0.0095,0 -0.0331,0.0175 -0.05246,0.0389c-0.01936,0.0214 -0.0448,0.0389 -0.05651,0.039c-0.01171,0.00006 -0.04927,0.0263 -0.08347,0.0584c-0.03419,0.032 -0.06794,0.0583 -0.07501,0.0583c-0.0071,0 -0.04474,0.0241 -0.08372,0.0535c-0.03898,0.0294 -0.09849,0.0688 -0.13224,0.0875c-0.06629,0.0367 -0.15273,0.0462 -0.13316,0.0146l-0.00001,-0.00049z" />
    <path fill="#9AA7B0"
        d="m12,8c-2.208,0 -4,1.792 -4,4c0,2.208 1.792,4 4,4c2.208,0 4,-1.792 4,-4c0,-2.208 -1.792,-4 -4,-4zm-0.4,7.172c-1.58,-0.196 -2.8,-1.54 -2.8,-3.172c0,-0.248 0.032,-0.484 0.084,-0.716l1.916,1.916l0,0.4c0,0.44 0.36,0.8 0.8,0.8l0,0.772zm2.76,-1.016c-0.104,-0.324 -0.4,-0.556 -0.76,-0.556l-0.4,0l0,-1.2c0,-0.22 -0.18,-0.4 -0.4,-0.4l-2.4,0l0,-0.8l0.8,0c0.22,0 0.4,-0.18 0.4,-0.4l0,-0.8l0.8,0c0.44,0 0.8,-0.36 0.8,-0.8l0,-0.164c1.172,0.476 2,1.624 2,2.964c0,0.832 -0.32,1.588 -0.84,2.156z"
    />
  </g>
</svg>